<svg width="32" height="33" viewBox="0 0 32 33" fill="none" xmlns="http://www.w3.org/2000/svg">
<g id="Group 1171275984">
<circle id="Ellipse 2216" cx="16" cy="16.5" r="16" fill="#155849"/>
<g id="Group 1171275800">
<g id="01AIlogo_green_03">
<g id="&#229;&#155;&#190;&#229;&#177;&#130; 1">
<path id="Vector" d="M6 17.0357C6 14.6147 6.82219 14 8.0625 14C9.30281 14 10.125 14.6119 10.125 17.0357C10.125 19.4595 9.31031 20.0714 8.0625 20.0714C6.81469 20.0714 6 19.4652 6 17.0357ZM9.07219 17.0357C9.07219 15.3452 8.77031 14.9202 8.06531 14.9202C7.36031 14.9202 7.06594 15.3452 7.06594 17.0357C7.06594 18.7262 7.35937 19.1522 8.06531 19.1522C8.77125 19.1522 9.07219 18.7348 9.07219 17.0357Z" fill="white"/>
<path id="Vector_2" d="M12.7756 15.065L11.3394 15.3449V14.4446L13.0775 14.0879H13.85V19.9838H12.7756V15.065Z" fill="white"/>
<path id="Vector_3" d="M15.4053 19.354C15.4053 18.7592 15.514 18.6738 16.0765 18.6738C16.6146 18.6738 16.7487 18.7592 16.7487 19.354C16.7487 19.9318 16.6146 20.0333 16.0765 20.0333C15.514 20.0333 15.4053 19.9318 15.4053 19.354Z" fill="white"/>
<path id="Vector_4" d="M21.5947 18.4204H19.1572L18.6041 19.9838H17.4697L19.6532 14.0879H21.1307L23.2972 19.9838H22.1319L21.5947 18.4204ZM21.2666 17.486L20.435 15.0811H20.3347L19.4854 17.486H21.2666Z" fill="white"/>
<path id="Vector_5" d="M24.0293 14.0879H25.129V19.9838H24.0293V14.0879Z" fill="white"/>
</g>
</g>
</g>
</g>
</svg>
